<svg width="67" height="68" viewBox="0 0 67 68" fill="none" xmlns="http://www.w3.org/2000/svg">
<path d="M30.7083 42.3752H36.2916M40.4791 61.9168L39.597 60.7471C37.6149 58.1118 37.1208 54.0834 38.377 50.7502M26.5208 61.9168L27.403 60.7471C29.3851 58.1118 29.8792 54.0834 28.6229 50.7502M19.5416 61.9168H47.4583M39.0833 6.0835H27.9166C18.76 6.0835 14.1844 6.0835 10.9405 8.35591C9.74022 9.1964 8.69622 10.2404 7.85573 11.4407C5.58331 14.6818 5.58331 19.2602 5.58331 28.4168C5.58331 37.5735 5.58331 42.149 7.85573 45.393C8.69622 46.5933 9.74022 47.6373 10.9405 48.4777C14.1816 50.7502 18.76 50.7502 27.9166 50.7502H39.0833C48.24 50.7502 52.8155 50.7502 56.0594 48.4777C57.2597 47.6373 58.3037 46.5933 59.1442 45.393C61.4167 42.1518 61.4166 37.5735 61.4166 28.4168C61.4166 19.2602 61.4167 14.6846 59.1442 11.4407C58.3037 10.2404 57.2597 9.1964 56.0594 8.35591C52.8183 6.0835 48.24 6.0835 39.0833 6.0835Z" stroke="white" stroke-width="5" stroke-linecap="round" stroke-linejoin="round"/>
</svg>
