<svg width="67" height="68" viewBox="0 0 67 68" fill="none" xmlns="http://www.w3.org/2000/svg">
<path d="M35.4243 58.5396L36.4273 58.5601L37.2534 58.5767L37.9663 60.0044C36.7387 60.4803 35.4313 60.728 34.1089 60.728C32.7861 60.728 31.4784 60.4806 30.2505 60.0044L30.9644 58.5767L31.7905 58.5601L32.7944 58.5396L32.7788 57.9448C33.2171 58.0187 33.6617 58.0581 34.1089 58.0581C34.5557 58.0581 35.0001 58.0186 35.438 57.9448L35.4243 58.5396ZM28.5464 58.9409C28.4735 58.8433 28.4089 58.74 28.353 58.6323L28.7046 58.6245L28.5464 58.9409ZM39.8638 58.6323C39.8355 58.6867 39.8058 58.7404 39.773 58.7925C39.741 58.8432 39.7062 58.8921 39.6704 58.9399L39.5122 58.6245L39.8638 58.6323ZM29.0366 48.5073C29.8162 50.606 30.3394 52.7888 30.5933 55.0093L30.5288 54.9771L30.5259 54.9819L30.19 55.6548L30.0816 55.8716L29.7153 56.603L28.0571 56.6382C27.9085 54.2034 27.4058 51.8092 26.5689 49.5288L29.0366 48.5073ZM41.648 49.5298C40.8113 51.8097 40.3093 54.2039 40.1607 56.6382L38.5025 56.603L38.1372 55.8716L37.69 54.9771L37.6216 55.0103C37.876 52.7901 38.4003 50.6075 39.1802 48.5093L41.648 49.5298ZM21.4741 35.812C21.6014 37.4364 22.0408 39.0242 22.773 40.4868C23.505 41.9491 24.513 43.2525 25.7368 44.3276L24.1314 46.4683C22.5781 45.1404 21.3028 43.5136 20.3853 41.6802C19.4678 39.8468 18.9302 37.8511 18.7984 35.812H21.4741ZM49.4194 35.812C49.2877 37.851 48.7509 39.8469 47.8335 41.6802C46.9159 43.5137 45.6398 45.1404 44.0864 46.4683L42.48 44.3267C44.8864 42.2097 46.4797 39.1981 46.7437 35.812H49.4194ZM35.1089 19.5015C38.8132 19.7432 42.3176 21.3215 44.9585 23.9624C47.5994 26.6033 49.1776 30.1077 49.4194 33.812H46.7437C46.5067 30.8166 45.2108 27.9901 43.0708 25.8501C40.9308 23.7101 38.1043 22.4152 35.1089 22.1782V19.5015ZM33.1089 22.1782C30.1136 22.4152 27.287 23.7101 25.147 25.8501C23.007 27.9901 21.7121 30.8167 21.4751 33.812H18.7984C19.0402 30.1077 20.6184 26.6033 23.2593 23.9624C25.9002 21.3215 29.4046 19.7433 33.1089 19.5015V22.1782Z" fill="white" stroke="white" stroke-width="2"/>
<path d="M41.095 48.8213C39.0278 50.2046 36.5964 50.943 34.1091 50.943C31.6218 50.943 29.1904 50.2046 27.1232 48.8213" fill="white"/>
<path d="M41.095 48.8213C39.0278 50.2046 36.5964 50.943 34.1091 50.943C31.6218 50.943 29.1904 50.2046 27.1232 48.8213" stroke="white" stroke-width="2"/>
<path d="M57.3099 32.6856H59.6909M33.5 8.96307V6.59082M52.5479 51.6635L50.1669 49.2913M52.5479 13.7076L50.1669 16.0798M14.4521 51.6635L16.8331 49.2913M14.4521 13.7076L16.8331 16.0798M7.3091 32.6856H9.69009" stroke="white" stroke-width="4" stroke-linecap="round" stroke-linejoin="round"/>
</svg>
