<svg width="67" height="68" viewBox="0 0 67 68" fill="none" xmlns="http://www.w3.org/2000/svg">
<path d="M16.7498 13.6499C18.1023 13.6499 19.4417 13.9165 20.6912 14.4341C21.9408 14.9517 23.0766 15.7102 24.033 16.6665C24.9895 17.6229 25.7488 18.7586 26.2664 20.0083C26.784 21.2578 27.0496 22.5972 27.0496 23.9497C27.0496 25.3021 26.7839 26.6416 26.2664 27.8911C25.7488 29.1408 24.9895 30.2765 24.033 31.2329C23.0766 32.1894 21.9409 32.9487 20.6912 33.4663C19.4417 33.9838 18.1022 34.2495 16.7498 34.2495C14.0182 34.2495 11.3982 33.1645 9.46661 31.2329C7.53511 29.3013 6.45001 26.6813 6.45001 23.9497C6.45006 21.218 7.53504 18.5981 9.46661 16.6665C11.3982 14.7349 14.0182 13.65 16.7498 13.6499ZM16.7498 17.4995C15.0392 17.4996 13.3988 18.1796 12.1893 19.3892C10.9797 20.5987 10.2997 22.2391 10.2996 23.9497C10.2996 25.6603 10.9798 27.3007 12.1893 28.5103C13.3988 29.7198 15.0392 30.3999 16.7498 30.3999C18.4605 30.3999 20.1017 29.7199 21.3113 28.5103C22.5206 27.3007 23.2 25.6601 23.2 23.9497C23.2 22.2393 22.5207 20.5987 21.3113 19.3892C20.1017 18.1796 18.4605 17.4995 16.7498 17.4995Z" fill="white" stroke="white" stroke-width="0.5"/>
<path d="M11.7252 29.5591C11.9783 29.5591 12.2288 29.6096 12.4625 29.7065C12.6963 29.8035 12.9088 29.9454 13.0875 30.1245L13.2145 30.2642C13.3348 30.4104 13.4336 30.574 13.5065 30.7495C13.6034 30.9832 13.6529 31.2338 13.653 31.4868C13.653 31.74 13.6035 31.9912 13.5065 32.2251C13.4337 32.4005 13.3346 32.5633 13.2145 32.7095L13.0875 32.8501L11.9547 33.978C9.82252 36.1108 8.62491 39.0042 8.62463 42.02V48.2368C8.62463 48.7473 8.42211 49.2371 8.06116 49.5981C7.70015 49.9592 7.21037 50.1626 6.69983 50.1626C6.18936 50.1625 5.69946 49.9591 5.3385 49.5981C4.97767 49.2372 4.77502 48.7472 4.77502 48.2368V42.02C4.77551 37.9833 6.37882 34.111 9.23303 31.2563L10.3619 30.1245C10.5407 29.9453 10.7532 29.8036 10.9869 29.7065C11.2208 29.6095 11.472 29.5591 11.7252 29.5591ZM53.6002 28.5542C53.8533 28.5542 54.1037 28.6047 54.3375 28.7017C54.5713 28.7987 54.7838 28.9405 54.9625 29.1196L56.0914 30.2515C58.9456 33.106 60.5498 36.9775 60.5504 41.0142V48.2368C60.5504 48.7474 60.347 49.2371 59.986 49.5981C59.625 49.9591 59.1352 50.1626 58.6246 50.1626C58.1143 50.1625 57.6252 49.959 57.2643 49.5981C56.9033 49.2371 56.6998 48.7474 56.6998 48.2368V41.0142C56.6995 38.187 55.6468 35.4684 53.7584 33.3823L53.3698 32.9741L52.2379 31.8452C52.0587 31.6664 51.916 31.454 51.819 31.2202C51.7219 30.9863 51.6725 30.7351 51.6725 30.4819C51.6725 30.2289 51.722 29.9784 51.819 29.7446C51.9159 29.511 52.0579 29.2983 52.2369 29.1196C52.4156 28.9405 52.6282 28.7987 52.8619 28.7017C53.0958 28.6046 53.347 28.5542 53.6002 28.5542Z" fill="white" stroke="white" stroke-width="0.5"/>
<path d="M31.8246 41.2876C35.0005 41.2876 38.0467 42.5489 40.2924 44.7944C42.5381 47.0401 43.8002 50.0863 43.8002 53.2622V57.6177C43.8002 58.1281 43.5967 58.6181 43.2358 58.979C42.8749 59.3397 42.3856 59.5424 41.8754 59.5425C41.365 59.5425 40.8751 59.3398 40.5141 58.979C40.1532 58.6181 39.9497 58.1281 39.9496 57.6177V53.2622C39.9496 52.1953 39.7398 51.1385 39.3315 50.1528C38.9232 49.1672 38.3251 48.2715 37.5707 47.5171C36.8163 46.7626 35.9198 46.1647 34.934 45.7563C33.9483 45.3481 32.8916 45.1372 31.8246 45.1372C29.6699 45.1373 27.6032 45.9934 26.0795 47.5171C24.5559 49.0408 23.6997 51.1074 23.6996 53.2622V57.6177C23.6996 58.1281 23.4971 58.6181 23.1362 58.979C22.7752 59.3399 22.2853 59.5425 21.7748 59.5425C21.2644 59.5424 20.7745 59.3399 20.4135 58.979C20.0526 58.6181 19.8501 58.1281 19.85 57.6177V53.2622L19.8647 52.6685C20.0115 49.7087 21.2525 46.8998 23.3578 44.7944C25.6035 42.549 28.649 41.2877 31.8246 41.2876ZM46.8998 13.6499C49.6315 13.6499 52.2514 14.735 54.183 16.6665C56.1146 18.5981 57.1996 21.218 57.1996 23.9497C57.1996 26.6814 56.1147 29.3013 54.183 31.2329C52.2514 33.1645 49.6316 34.2495 46.8998 34.2495C45.5474 34.2495 44.208 33.9839 42.9584 33.4663C41.7088 32.9487 40.5731 32.1894 39.6166 31.2329C38.6603 30.2765 37.9018 29.1407 37.3842 27.8911C36.8667 26.6415 36.6 25.3022 36.6 23.9497C36.6001 22.5972 36.8666 21.2579 37.3842 20.0083C37.9018 18.7587 38.6602 17.6229 39.6166 16.6665C40.5731 15.7101 41.7088 14.9517 42.9584 14.4341C44.208 13.9165 45.5473 13.6499 46.8998 13.6499ZM46.8998 17.4995C45.1893 17.4996 43.5489 18.1796 42.3393 19.3892C41.1297 20.5987 40.4497 22.2391 40.4496 23.9497C40.4496 25.6603 41.1298 27.3007 42.3393 28.5103C43.5489 29.7198 45.1893 30.3999 46.8998 30.3999C48.6105 30.3999 50.2508 29.7199 51.4604 28.5103C52.67 27.3006 53.35 25.6604 53.35 23.9497C53.35 22.2391 52.67 20.5987 51.4604 19.3892C50.2508 18.1797 48.6104 17.4995 46.8998 17.4995Z" fill="white" stroke="white" stroke-width="0.5"/>
<path d="M31.8248 22.8623C34.5565 22.8623 37.1764 23.9474 39.108 25.8789C41.0396 27.8105 42.1246 30.4305 42.1246 33.1621C42.1246 35.8938 41.0397 38.5137 39.108 40.4453C37.1764 42.3769 34.5566 43.4619 31.8248 43.4619C29.0932 43.4619 26.4732 42.3769 24.5416 40.4453C22.6101 38.5137 21.525 35.8937 21.525 33.1621C21.5251 30.4304 22.61 27.8105 24.5416 25.8789C26.4732 23.9473 29.0932 22.8624 31.8248 22.8623ZM31.8248 26.7119C30.1143 26.712 28.4738 27.392 27.2643 28.6016C26.0547 29.8111 25.3747 31.4515 25.3746 33.1621C25.3746 34.8727 26.0548 36.5131 27.2643 37.7227C28.4738 38.9322 30.1143 39.6123 31.8248 39.6123C33.5355 39.6123 35.1758 38.9323 36.3854 37.7227C37.595 36.513 38.275 34.8728 38.275 33.1621C38.275 31.4515 37.5949 29.8111 36.3854 28.6016C35.1758 27.3921 33.5354 26.7119 31.8248 26.7119Z" fill="white" stroke="white" stroke-width="0.5"/>
</svg>
