<svg width="57" height="56" viewBox="0 0 57 56" fill="none" xmlns="http://www.w3.org/2000/svg">
<path d="M28.5 0.0834961C43.9184 0.0834961 56.4167 12.5818 56.4167 28.0002C56.4167 43.4185 43.9184 55.9168 28.5 55.9168C13.0816 55.9168 0.583344 43.4185 0.583344 28.0002C0.583344 12.5818 13.0816 0.0834961 28.5 0.0834961ZM28.5 5.66683C22.5768 5.66683 16.8963 8.0198 12.708 12.2081C8.51965 16.3964 6.16668 22.077 6.16668 28.0002C6.16668 33.9233 8.51965 39.6039 12.708 43.7922C16.8963 47.9805 22.5768 50.3335 28.5 50.3335C34.4232 50.3335 40.1037 47.9805 44.2921 43.7922C48.4804 39.6039 50.8333 33.9233 50.8333 28.0002C50.8333 22.077 48.4804 16.3964 44.2921 12.2081C40.1037 8.0198 34.4232 5.66683 28.5 5.66683ZM28.5 39.1668C29.2404 39.1668 29.9505 39.4609 30.474 39.9845C30.9976 40.508 31.2917 41.2181 31.2917 41.9585C31.2917 42.6989 30.9976 43.409 30.474 43.9325C29.9505 44.456 29.2404 44.7502 28.5 44.7502C27.7596 44.7502 27.0495 44.456 26.526 43.9325C26.0025 43.409 25.7083 42.6989 25.7083 41.9585C25.7083 41.2181 26.0025 40.508 26.526 39.9845C27.0495 39.4609 27.7596 39.1668 28.5 39.1668ZM28.5 12.646C30.8514 12.6461 33.1293 13.4649 34.9426 14.962C36.7558 16.459 37.9912 18.5407 38.4364 20.8495C38.8817 23.1583 38.509 25.5502 37.3825 27.6141C36.256 29.678 34.4459 31.2853 32.2632 32.1597C31.9399 32.2786 31.6485 32.4707 31.4117 32.7209C31.2889 32.8605 31.2693 33.0391 31.2721 33.2234L31.2917 33.5835C31.2909 34.295 31.0184 34.9794 30.53 35.4968C30.0415 36.0142 29.3739 36.3256 28.6636 36.3673C27.9533 36.409 27.2539 36.1779 26.7082 35.7212C26.1626 35.2645 25.8119 34.6167 25.7279 33.9101L25.7083 33.5835V32.8856C25.7083 29.6668 28.3046 27.735 30.1862 26.9784C30.952 26.6726 31.62 26.164 32.1185 25.5072C32.6171 24.8503 32.9272 24.0701 33.0158 23.2503C33.1044 22.4305 32.9679 21.602 32.6211 20.8539C32.2744 20.1058 31.7303 19.4662 31.0475 19.004C30.3647 18.5417 29.5688 18.2742 28.7454 18.2301C27.922 18.186 27.1021 18.3671 26.3739 18.7538C25.6456 19.1405 25.0364 19.7184 24.6118 20.4252C24.1871 21.132 23.963 21.9412 23.9636 22.7658C23.9636 23.5062 23.6694 24.2163 23.1459 24.7398C22.6224 25.2633 21.9123 25.5575 21.1719 25.5575C20.4315 25.5575 19.7214 25.2633 19.1979 24.7398C18.6743 24.2163 18.3802 23.5062 18.3802 22.7658C18.3802 20.0819 19.4464 17.5078 21.3442 15.61C23.2421 13.7122 25.8161 12.646 28.5 12.646Z" fill="white"/>
</svg>
